<svg width="40" height="40" viewBox="0 0 40 40" fill="none" xmlns="http://www.w3.org/2000/svg">
<path d="M23.5135 28.8385C26.5361 28.8385 28.9865 26.4315 28.9865 23.4624C28.9865 20.4933 26.5361 18.0863 23.5135 18.0863C20.4909 18.0863 18.0405 20.4933 18.0405 23.4624C18.0405 26.4315 20.4909 28.8385 23.5135 28.8385Z" fill="#31C6E3"/>
<path d="M20.375 26.1505C23.3435 26.1505 25.75 23.7436 25.75 20.7744C25.75 17.8053 23.3435 15.3983 20.375 15.3983C17.4065 15.3983 15 17.8053 15 20.7744C15 23.7436 17.4065 26.1505 20.375 26.1505Z" stroke="#220E6D" stroke-width="2.5" stroke-linecap="round" stroke-linejoin="round"/>
<path d="M20.4731 15.3983V12.7102" stroke="#220E6D" stroke-width="2.5" stroke-linecap="round" stroke-linejoin="round"/>
<path d="M20.4731 28.8386V26.1505" stroke="#220E6D" stroke-width="2.5" stroke-linecap="round" stroke-linejoin="round"/>
<path d="M25.3381 18.0864L27.7706 16.593" stroke="#220E6D" stroke-width="2.5" stroke-linecap="round" stroke-linejoin="round"/>
<path d="M13.4797 24.6571L15.5 23.5" stroke="#220E6D" stroke-width="2.5" stroke-linecap="round" stroke-linejoin="round"/>
<path d="M15.5 17.5001L13.4797 16.593" stroke="#220E6D" stroke-width="2.5" stroke-linecap="round" stroke-linejoin="round"/>
<path d="M27.7706 24.6571L25.3381 23.4624" stroke="#220E6D" stroke-width="2.5" stroke-linecap="round" stroke-linejoin="round"/>
<path d="M15.0001 34.812C9.22309 32.4227 5.27039 27.0466 5.27039 20.7744C5.27039 14.5023 9.22309 8.82752 15.0001 6.73682" stroke="#220E6D" stroke-width="2.5" stroke-linecap="round" stroke-linejoin="round"/>
<path d="M26.25 6.73682C32.027 8.82752 35.9797 14.5023 35.9797 20.7744C35.9797 27.0466 32.027 32.7213 26.25 34.812" stroke="#220E6D" stroke-width="2.5" stroke-linecap="round" stroke-linejoin="round"/>
<path d="M14.088 10.9182L15.3042 6.4381L10.7434 5.24341" stroke="#220E6D" stroke-width="2.5" stroke-linecap="round" stroke-linejoin="round"/>
<path d="M27.1624 30.3319L25.9462 34.812L30.507 36.0067" stroke="#220E6D" stroke-width="2.5" stroke-linecap="round" stroke-linejoin="round"/>
</svg>
