<svg width="42" height="40" viewBox="0 0 42 40" fill="none" xmlns="http://www.w3.org/2000/svg">
<rect x="1.25" width="16.25" height="7.5" rx="3.75" fill="#31C6E3"/>
<path d="M35.7608 24.5076L36.3136 26.3015C36.4048 26.5992 36.6072 26.8517 36.8798 27.0078C37.1524 27.1638 37.4748 27.2119 37.7819 27.1423L39.623 26.7213C39.9721 26.6431 40.3373 26.6774 40.6652 26.8193C40.993 26.9612 41.2661 27.2031 41.4444 27.5095C41.6227 27.8159 41.6967 28.1706 41.6557 28.5216C41.6147 28.8726 41.4607 29.2014 41.2164 29.4597L39.9282 30.8314C39.713 31.0598 39.5933 31.3602 39.5933 31.6722C39.5933 31.9841 39.713 32.2845 39.9282 32.5129L41.2164 33.8846C41.4607 34.1429 41.6147 34.4716 41.6557 34.8227C41.6967 35.1737 41.6227 35.5284 41.4444 35.8348C41.2661 36.1412 40.993 36.3831 40.6652 36.525C40.3373 36.6669 39.9721 36.7012 39.623 36.623L37.7819 36.202C37.4748 36.1324 37.1524 36.1804 36.8798 36.3365C36.6072 36.4926 36.4048 36.7451 36.3136 37.0428L35.7608 38.8293C35.6581 39.1677 35.4475 39.4643 35.1605 39.6752C34.8735 39.886 34.5252 39.9999 34.1674 39.9999C33.8096 39.9999 33.4613 39.886 33.1742 39.6752C32.8872 39.4643 32.6767 39.1677 32.574 38.8293L32.0199 37.0354C31.9289 36.7377 31.7268 36.4853 31.4544 36.3292C31.182 36.1731 30.8598 36.125 30.5528 36.1946L28.7105 36.6156C28.3614 36.6938 27.9961 36.6594 27.6683 36.5176C27.3405 36.3757 27.0674 36.1338 26.8891 35.8274C26.7108 35.521 26.6367 35.1663 26.6778 34.8153C26.7188 34.4642 26.8728 34.1355 27.1171 33.8772L28.4066 32.5055C28.6218 32.2771 28.7414 31.9767 28.7414 31.6647C28.7414 31.3528 28.6218 31.0524 28.4066 30.824L27.1171 29.4523C26.8728 29.194 26.7188 28.8652 26.6778 28.5142C26.6367 28.1632 26.7108 27.8085 26.8891 27.5021C27.0674 27.1957 27.3405 26.9538 27.6683 26.8119C27.9961 26.67 28.3614 26.6357 28.7105 26.7139L30.5528 27.1349C30.8598 27.2045 31.182 27.1564 31.4544 27.0003C31.7268 26.8442 31.9289 26.5917 32.0199 26.2941L32.574 24.5002C32.6775 24.1621 32.8887 23.8659 33.1763 23.6557C33.4638 23.4455 33.8124 23.3324 34.1702 23.3333C34.528 23.3341 34.876 23.4488 35.1625 23.6603C35.4491 23.8719 35.6589 24.169 35.7608 24.5076V24.5076Z" fill="#31C6E3"/>
<path d="M13.6122 7.77893C13.1177 7.77893 12.6344 7.92555 12.2233 8.20026C11.8121 8.47496 11.4917 8.86541 11.3025 9.32222C11.1133 9.77904 11.0638 10.2817 11.1602 10.7667C11.2567 11.2516 11.4948 11.6971 11.8444 12.0467C12.194 12.3963 12.6395 12.6344 13.1245 12.7309C13.6094 12.8274 14.1121 12.7778 14.5689 12.5886C15.0257 12.3994 15.4162 12.079 15.6909 11.6679C15.9656 11.2567 16.1122 10.7734 16.1122 10.2789C16.1122 9.61589 15.8488 8.98001 15.38 8.51116C14.9111 8.04232 14.2752 7.77893 13.6122 7.77893V7.77893Z" fill="#220E6D"/>
<path d="M13.6122 21.1145C13.1177 21.1145 12.6344 21.2611 12.2233 21.5358C11.8121 21.8105 11.4917 22.201 11.3025 22.6578C11.1133 23.1146 11.0638 23.6173 11.1602 24.1022C11.2567 24.5872 11.4948 25.0326 11.8444 25.3823C12.194 25.7319 12.6395 25.97 13.1245 26.0665C13.6094 26.1629 14.1121 26.1134 14.5689 25.9242C15.0257 25.735 15.4162 25.4146 15.6909 25.0034C15.9656 24.5923 16.1122 24.109 16.1122 23.6145C16.1122 22.9515 15.8488 22.3156 15.38 21.8467C14.9111 21.3779 14.2752 21.1145 13.6122 21.1145V21.1145Z" fill="#220E6D"/>
<path d="M22.689 16.6689H11.6678C9.89942 16.6689 8.20343 15.9664 6.95296 14.716C5.7025 13.4655 5 11.7695 5 10.0011C5 8.23267 5.7025 6.53668 6.95296 5.28622C8.20343 4.03575 9.89942 3.33325 11.6678 3.33325H29.4487C30.7296 3.33317 31.9833 3.70198 33.0601 4.39559C34.1368 5.0892 34.991 6.07826 35.5205 7.24449C36.05 8.41073 36.2325 9.7048 36.046 10.972C35.8595 12.2391 35.3119 13.4258 34.4689 14.39" stroke="#220E6D" stroke-width="1.875" stroke-linecap="round" stroke-linejoin="round"/>
<path d="M16.1131 30.0046H11.6678C9.89942 30.0046 8.20343 29.3021 6.95296 28.0517C5.7025 26.8012 5 25.1052 5 23.3368C5 21.5684 5.7025 19.8724 6.95296 18.6219C8.20343 17.3714 9.89942 16.6689 11.6678 16.6689H21.6681" stroke="#220E6D" stroke-width="1.875" stroke-linecap="round" stroke-linejoin="round"/>
<path d="M19.447 10.0012H29.4488" stroke="#220E6D" stroke-width="1.875" stroke-linecap="round" stroke-linejoin="round"/>
<path d="M29.4487 28.8933C30.6762 28.8933 31.6713 27.8982 31.6713 26.6707C31.6713 25.4432 30.6762 24.4481 29.4487 24.4481C28.2212 24.4481 27.2261 25.4432 27.2261 26.6707C27.2261 27.8982 28.2212 28.8933 29.4487 28.8933Z" stroke="#220E6D" stroke-width="1.875" stroke-linecap="round" stroke-linejoin="round"/>
<path d="M31.3365 18.0768L31.9914 20.2298C32.0995 20.5871 32.3392 20.8901 32.6621 21.0774C32.9851 21.2648 33.3671 21.3225 33.7309 21.2389L35.9121 20.7336C36.3256 20.6398 36.7584 20.681 37.1468 20.8513C37.5351 21.0215 37.8587 21.3118 38.0699 21.6796C38.2811 22.0473 38.3689 22.473 38.3203 22.8943C38.2716 23.3156 38.0892 23.7101 37.7998 24.0201L36.2736 25.6663C36.0187 25.9405 35.8769 26.301 35.8769 26.6754C35.8769 27.0498 36.0187 27.4103 36.2736 27.6844L37.7998 29.3307C38.0892 29.6406 38.2716 30.0352 38.3203 30.4565C38.3689 30.8777 38.2811 31.3035 38.0699 31.6712C37.8587 32.0389 37.5351 32.3292 37.1468 32.4995C36.7584 32.6698 36.3256 32.711 35.9121 32.6172L33.7309 32.1119C33.3671 32.0283 32.9851 32.086 32.6621 32.2733C32.3392 32.4606 32.0995 32.7636 31.9914 33.121L31.3365 35.265C31.2147 35.6711 30.9653 36.0271 30.6253 36.2802C30.2852 36.5332 29.8726 36.6699 29.4487 36.6699C29.0248 36.6699 28.6122 36.5332 28.2721 36.2802C27.9321 36.0271 27.6827 35.6711 27.561 35.265L26.9046 33.1121C26.7968 32.7548 26.5573 32.4519 26.2346 32.2646C25.912 32.0772 25.5301 32.0195 25.1665 32.103L22.9839 32.6083C22.5703 32.7021 22.1376 32.6609 21.7492 32.4906C21.3608 32.3203 21.0373 32.03 20.826 31.6623C20.6148 31.2946 20.5271 30.8688 20.5757 30.4476C20.6243 30.0263 20.8067 29.6317 21.0961 29.3218L22.6238 27.6756C22.8788 27.4014 23.0205 27.0409 23.0205 26.6665C23.0205 26.2921 22.8788 25.9316 22.6238 25.6574L21.0961 24.0112C20.8067 23.7013 20.6243 23.3067 20.5757 22.8854C20.5271 22.4641 20.6148 22.0384 20.826 21.6707C21.0373 21.3029 21.3608 21.0126 21.7492 20.8424C22.1376 20.6721 22.5703 20.6309 22.9839 20.7247L25.1665 21.23C25.5301 21.3135 25.912 21.2558 26.2346 21.0684C26.5573 20.8811 26.7968 20.5781 26.9046 20.2209L27.561 18.0679C27.6836 17.6622 27.9339 17.3068 28.2745 17.0545C28.6152 16.8022 29.0281 16.6665 29.452 16.6675C29.8759 16.6685 30.2882 16.8061 30.6277 17.06C30.9671 17.3139 31.2157 17.6705 31.3365 18.0768V18.0768Z" stroke="#220E6D" stroke-width="1.875" stroke-linecap="round" stroke-linejoin="round"/>
</svg>
