<svg width="198" height="32" viewBox="0 0 198 32" fill="none" xmlns="http://www.w3.org/2000/svg">
<g clip-path="url(#clip0)">
<path d="M16.8223 21.6991L14.6677 14.5786L9.9442 19.452L8.12109 13.3061L20.5237 0.5C6.07701 0.5 1.02204 7.21441 2.40318 12.8188L5.13784 23.3507C6.57422 28.3052 1.40876 30.8773 0 31.4729C2.73465 31.5541 4.86161 31.4188 6.76758 30.8231C10.4138 29.8214 12.817 27.3576 16.8223 21.6991Z" fill="#FF5300"/>
<g opacity="0.8">
<path opacity="0.8" d="M30.5231 8.64933C29.0867 3.69475 34.2522 1.1227 35.661 0.527064C32.9263 0.445841 30.7994 0.581212 28.8934 1.17685C25.2196 2.17859 22.8164 4.64235 18.8111 10.3009L20.9656 17.4214L25.6891 12.548L27.5122 18.6939L15.1096 31.4729C29.5563 31.4729 34.6113 24.7585 33.2302 19.1541L30.5231 8.64933Z" fill="#FF5300"/>
</g>
<path d="M48.0913 9.976V16.0677H57.0411V18.2066H48.0913V25.2729H45.55V7.81006H58.146V9.976H48.0913Z" fill="white"/>
<path d="M60.5769 9.05541C60.5769 8.18904 61.2951 7.48511 62.2343 7.48511C63.1734 7.48511 63.8916 8.16196 63.8916 9.00126C63.8916 9.89471 63.2011 10.5986 62.2343 10.5986C61.2951 10.5986 60.5769 9.92179 60.5769 9.05541ZM60.9912 12.0607H63.4497V25.3H60.9912V12.0607Z" fill="white"/>
<path d="M75.2445 11.9253V14.2537C75.0512 14.2266 74.8578 14.2266 74.6921 14.2266C72.0679 14.2266 70.4382 15.7969 70.4382 18.6939V25.3H67.9797V12.0607H70.3277V14.2808C71.2116 12.7104 72.869 11.9253 75.2445 11.9253Z" fill="white"/>
<path d="M89.8294 19.479H78.8632C79.1671 21.8074 81.073 23.3506 83.7524 23.3506C85.3269 23.3506 86.6528 22.8362 87.6472 21.7532L89.0008 23.2965C87.7854 24.7043 85.907 25.4353 83.6696 25.4353C79.3052 25.4353 76.4048 22.6196 76.4048 18.6668C76.4048 14.741 79.2776 11.9253 83.1724 11.9253C87.0672 11.9253 89.8571 14.6869 89.8571 18.748C89.8847 18.9375 89.8571 19.2353 89.8294 19.479ZM78.8632 17.7463H87.5367C87.2881 15.5262 85.5755 13.9559 83.2 13.9559C80.852 13.9559 79.1394 15.4991 78.8632 17.7463Z" fill="white"/>
<path d="M109.303 7.81006V25.3H105.188V18.1253H97.0941V25.3H92.9507V7.81006H97.0941V14.714H105.188V7.81006H109.303Z" fill="white"/>
<path d="M126.761 11.844L120.574 26.1121C119.248 29.361 117.369 30.3357 114.883 30.3357C113.474 30.3357 111.955 29.8754 111.071 29.1174L112.535 26.3558C113.143 26.8702 113.999 27.1951 114.773 27.1951C115.878 27.1951 116.485 26.7078 117.01 25.5165L117.065 25.3811L111.127 11.844H115.242L119.054 20.968L122.921 11.844H126.761Z" fill="white"/>
<path d="M141.843 6.75415V25.3H138.031V23.7568C137.037 24.921 135.573 25.5166 133.75 25.5166C129.882 25.5166 126.899 22.8092 126.899 18.5856C126.899 14.362 129.882 11.6546 133.75 11.6546C135.435 11.6546 136.871 12.169 137.865 13.279V6.75415H141.843ZM137.948 18.5585C137.948 16.2301 136.429 14.8223 134.468 14.8223C132.479 14.8223 130.96 16.2301 130.96 18.5585C130.96 20.8869 132.479 22.2948 134.468 22.2948C136.401 22.2948 137.948 20.8869 137.948 18.5585Z" fill="white"/>
<path d="M153.914 11.6545V15.2554C153.583 15.2283 153.334 15.2013 153.03 15.2013C150.848 15.2013 149.384 16.3655 149.384 18.9375V25.2729H145.406V11.8441H149.218V13.631C150.158 12.3314 151.787 11.6545 153.914 11.6545Z" fill="white"/>
<path d="M168.195 17.6108V25.2728H164.466V23.5942C163.72 24.8126 162.312 25.4623 160.295 25.4623C157.091 25.4623 155.185 23.7025 155.185 21.4012C155.185 19.0187 156.897 17.3672 161.068 17.3672H164.217C164.217 15.6886 163.195 14.7139 161.068 14.7139C159.604 14.7139 158.113 15.2012 157.118 15.9593L155.682 13.2248C157.174 12.1689 159.411 11.6003 161.593 11.6003C165.792 11.6545 168.195 13.5497 168.195 17.6108ZM164.217 21.0493V19.6685H161.483C159.632 19.6685 159.024 20.3453 159.024 21.2388C159.024 22.2134 159.853 22.8632 161.262 22.8632C162.615 22.8632 163.776 22.2676 164.217 21.0493Z" fill="white"/>
<path d="M185.708 17.5838V25.2729H181.73V18.2065C181.73 16.0405 180.708 15.0388 178.94 15.0388C177.034 15.0388 175.653 16.1759 175.653 18.6667V25.2999H171.676V11.844H175.487V13.4143C176.565 12.2772 178.167 11.6274 180.018 11.6274C183.249 11.6545 185.708 13.4956 185.708 17.5838Z" fill="white"/>
<path d="M198 24.6502C197.171 25.2188 195.984 25.4895 194.768 25.4895C191.536 25.4895 189.63 23.8651 189.63 20.6703V15.1472H187.503V12.1419H189.63V8.86597H193.636V12.1419H197.061V15.1472H193.636V20.6162C193.636 21.7533 194.271 22.4031 195.348 22.4031C195.928 22.4031 196.508 22.2406 196.95 21.9157L198 24.6502Z" fill="white"/>
</g>
<defs>
<clipPath id="clip0">
<rect width="198" height="31" fill="white" transform="translate(0 0.5)"/>
</clipPath>
</defs>
</svg>
