<svg width="120" height="45" viewBox="0 0 120 45" fill="none" xmlns="http://www.w3.org/2000/svg">
<path fill-rule="evenodd" clip-rule="evenodd" d="M14.486 7.0974L14.5732 7.86217L26.0746 8.18003L26.0865 7.99242V7.996L26.1068 7.66142L26.1248 7.32683L26.1331 7.15954L22.0703 4.80549C20.9554 4.16261 19.5824 4.16261 18.4675 4.80549L14.486 7.0974ZM15.289 12.1234L25.6492 12.4603L25.6707 12.3026L25.6695 12.3074L25.6874 12.1783L25.7197 11.9393L25.7436 11.7446L25.7699 11.5486L25.8033 11.2797L25.8356 11.0085L25.924 10.1636L25.9993 9.27579L14.8146 9.58409L15.2902 12.1317L15.289 12.1234ZM16.5317 16.3451L24.9179 16.6594L25.127 15.6437L25.2298 15.0737L25.2477 14.9781L25.2656 14.8777L25.3349 14.4714L25.3779 14.1906L25.4221 13.9516L25.4867 13.5573L15.712 13.8752L16.0203 14.9231L16.5269 16.3606L16.5317 16.3451ZM21.7931 21.4619C22.0071 21.4134 22.212 21.3311 22.4001 21.2181C22.5507 21.1297 22.6905 21.0269 22.8231 20.9122C22.9786 20.7779 23.1221 20.6304 23.2521 20.4713L23.3513 20.3458L23.411 20.2657L23.5019 20.1403C23.5998 20.0005 23.6895 19.8559 23.7731 19.7065L23.797 19.6647L23.8233 19.6217L24.1244 19.0541L24.2893 18.6765L24.361 18.4972L24.4757 18.1913L24.6287 17.7229L17.2893 17.9977L17.6442 18.6131C17.8748 18.9716 18.1282 19.3397 18.415 19.6683C18.8093 20.1223 19.2753 20.5286 19.825 20.7843C19.9803 20.856 20.1405 20.9182 20.3054 20.9636L20.4607 21.003L20.6101 21.0353L20.7057 21.0592L20.9889 21.1381C21.1741 21.1954 21.3569 21.2623 21.535 21.3412L21.7919 21.4607L21.7931 21.4619ZM15.0536 31.0776L24.6633 30.7347L24.3503 29.6592L23.7791 28.0389L15.6654 27.6864L15.6236 27.862L15.412 28.9136L15.3021 29.5385L15.2734 29.6939L15.2209 30.0046L15.1563 30.4228L15.1169 30.6499L15.0512 31.0633L15.0536 31.0776ZM14.5397 35.3508L25.5906 35.0114L25.1365 32.6574L25.0971 32.4805L14.8994 32.1172L14.768 33.121L14.5385 35.3508H14.5397ZM11.973 36.4549L12.0351 35.7379L12.0542 35.5587L12.0734 35.3914L12.1498 34.7425L12.3625 33.213L12.4557 32.6371L12.4713 32.5462L12.77 31.1051L12.8178 30.9139L12.9779 30.3093L13.0425 30.0763L13.0783 29.9508L13.3687 29.0904L13.389 29.0331L13.7236 28.2026L13.7355 28.1787L14.1896 27.2466L14.4812 26.7029L14.5051 26.6599L15.0368 25.8294L15.2448 25.5343L15.332 25.4148C15.5896 25.0763 15.8686 24.7546 16.1673 24.4516C16.1816 24.4373 16.1959 24.4242 16.2103 24.411L16.2497 24.3752L16.4445 24.2055L16.7313 23.9737L16.8149 23.9139L16.9344 23.8398L17.3048 23.608L17.5522 23.4766L17.8629 23.3403C18.0063 23.283 18.1557 23.2352 18.305 23.1993C18.4092 23.1733 18.515 23.1546 18.6217 23.1432C18.6886 23.136 18.7555 23.1312 18.8224 23.136H18.826L18.8416 23.1527L18.8248 23.1671C18.8129 23.1671 18.8033 23.1683 18.7926 23.1683L18.7364 23.1742C18.5261 23.2041 18.3241 23.2794 18.1365 23.3774C17.974 23.4634 17.8258 23.5686 17.6848 23.6881L17.5175 23.8374C17.4124 23.939 17.3144 24.0478 17.2236 24.1601L17.128 24.2879L17.0969 24.331L16.9798 24.4947L16.7384 24.8914L16.7145 24.9332L16.6906 24.9762L16.4672 25.3945L16.2342 25.9262L16.1864 26.0493L16.0729 26.3552L15.9713 26.6611L23.0155 26.3552C22.8383 26.0238 22.6432 25.7023 22.4312 25.3921C22.228 25.0981 22.0082 24.8161 21.762 24.5556C21.425 24.1995 21.0367 23.8817 20.591 23.6761C20.4631 23.6164 20.3305 23.5566 20.1942 23.5303L19.929 23.4706L19.8334 23.4467L19.4988 23.3547C19.2956 23.2914 19.0961 23.2173 18.9013 23.1312C18.7086 23.0464 18.5207 22.951 18.3385 22.8456L17.9298 22.5887C17.0886 22.0128 16.3943 21.2432 15.8195 20.4056L15.5746 20.0327L15.24 19.4747L14.8385 18.7135L14.3916 17.7313L13.8706 16.369L13.3125 14.567L12.7389 12.1688L12.2156 9.12165L12.1283 8.47159L5.85126 12.0959C4.73637 12.7388 4.05047 13.9289 4.05047 15.2147V29.7895C4.05047 31.0764 4.73637 32.2666 5.85126 32.9083L11.973 36.4549ZM28.3725 36.5505L34.6818 32.9083C35.7967 32.263 36.4826 31.0753 36.4826 29.7895V15.2111C36.4826 13.9241 35.7967 12.734 34.6818 12.0923L28.5302 8.5409L28.5003 8.89102L28.0701 12.0887L28.0319 12.2942L27.8431 13.2108L27.7714 13.5274L27.726 13.7067L27.6627 13.948L27.4691 14.6447L27.4571 14.6805L27.1417 15.5983L27.0998 15.7058L27.021 15.9042L26.7904 16.4539L26.7402 16.5614L26.6971 16.651L26.5299 16.9952L26.1929 17.6404L26.0256 17.9392L26.0112 17.9655L25.4675 18.796L25.2584 19.0863L25.1724 19.201C24.9113 19.5354 24.63 19.8535 24.33 20.1534C24.3156 20.1678 24.3001 20.1809 24.2857 20.194L24.1662 20.2992L23.7863 20.6099L23.7504 20.6374C23.503 20.8142 23.2461 20.9779 22.9761 21.1177L22.7729 21.2157L22.436 21.352C22.3045 21.3997 22.1683 21.438 22.0297 21.4679L21.86 21.4977L22.0106 21.579L22.3392 21.7762C23.1756 22.3199 23.8663 23.0667 24.4375 23.8793L24.7123 24.2915L25.0493 24.8508L25.4556 25.6179L25.9121 26.6121L26.4498 27.9983L27.0592 29.9484L27.6842 32.5247L28.2601 35.769L28.3701 36.5541L28.3725 36.5505ZM14.3748 37.8411L18.4544 40.1951C19.5693 40.8404 20.9423 40.8404 22.0572 40.1951L26.0005 37.9175L25.8523 36.7465L14.4597 36.3976L14.3736 37.8375L14.3748 37.8411ZM28.1442 3.99531L38.4244 9.92943C39.5393 10.5723 40.2264 11.7625 40.2264 13.0482V31.9476C40.2264 33.2345 39.5393 34.4247 38.4244 35.0664L22.0572 44.516C20.9423 45.1613 19.5693 45.1613 18.4544 44.516L2.08836 35.0712C0.973473 34.4259 0.286377 33.2381 0.286377 31.9523V13.0506C0.286377 11.7637 0.973473 10.5735 2.08836 9.93182L18.4556 0.482162C19.5705 -0.160721 20.9435 -0.160721 22.0584 0.482162L27.9136 3.86387L27.9805 3.8794L28.1454 3.9989L28.1442 3.99531Z" fill="#8A9BB7"/>
<path fill-rule="evenodd" clip-rule="evenodd" d="M53.5189 28.2041C53.5344 28.3439 53.4878 28.4312 53.3791 28.461C53.1616 28.5387 52.9274 28.5889 52.6788 28.6128L52.0252 28.6486C51.3405 28.6486 50.8852 28.4742 50.6606 28.1229C50.4359 27.7716 50.3224 27.2792 50.3224 26.6411V11.6266C50.3224 11.4868 50.3941 11.4175 50.5327 11.4175H51.209C51.3644 11.4175 51.4421 11.4892 51.4421 11.6266V26.2791C51.4421 26.7762 51.5018 27.1299 51.6165 27.3402C51.7312 27.5505 51.9941 27.6556 52.398 27.6556C52.5461 27.656 52.6941 27.648 52.8413 27.6317C52.9811 27.6162 53.1138 27.5935 53.2381 27.56C53.281 27.5599 53.3238 27.5639 53.3659 27.572C53.4042 27.5804 53.4316 27.6222 53.4472 27.6999L53.5189 28.2041ZM64.2041 22.3489C64.2055 21.6642 64.1431 20.981 64.0177 20.3079C63.8934 19.6471 63.6592 19.0675 63.3521 18.5692C63.045 18.071 62.6089 17.6706 62.0807 17.3671C61.5525 17.0636 60.8833 16.9131 60.0732 16.9131C59.3263 16.9131 58.693 17.0612 58.1732 17.3552C57.6534 17.6491 57.2316 18.0483 56.9137 18.5454C56.5959 19.0425 56.3617 19.6148 56.2135 20.2601C56.0653 20.9054 55.9912 21.5781 55.9912 22.2796C55.9912 23.0563 56.0629 23.7804 56.2015 24.4496C56.3401 25.1188 56.5744 25.7019 56.9018 26.2002C57.2292 26.6985 57.6522 27.0868 58.1732 27.3665C58.6942 27.6461 59.3359 27.7871 60.0971 27.7871C60.8905 27.7871 61.5513 27.6234 62.0807 27.3091C62.5978 26.9942 63.0302 26.5578 63.3402 26.0377C63.6509 25.5167 63.8731 24.9335 64.0058 24.2883C64.1367 23.6549 64.2031 23.01 64.2041 22.3632V22.3489ZM65.3011 22.2915C65.3011 24.4066 64.8422 26.0126 63.9245 27.1096C63.0068 28.2065 61.7162 28.755 60.0529 28.755C58.4038 28.755 57.1324 28.2053 56.2386 27.1096C55.3448 26.0138 54.8967 24.4305 54.8967 22.362C54.8967 20.278 55.371 18.6911 56.3186 17.6025C57.2662 16.5139 58.5353 15.969 60.1222 15.969C61.7867 15.969 63.0653 16.5187 63.9603 17.6145C64.8554 18.7103 65.3023 20.2709 65.3023 22.2927L65.3011 22.2915ZM72.6512 27.7536C72.877 27.7507 73.1027 27.7387 73.3275 27.7178C73.6072 27.6939 73.9107 27.6521 74.2381 27.5899L75.2538 27.3689C75.594 27.2865 75.926 27.1733 76.2456 27.0307V17.4938C75.6506 17.2754 75.0323 17.1266 74.403 17.0505L72.7695 16.9334C72.1625 16.9334 71.6032 17.0409 71.0894 17.2596C70.5756 17.4783 70.1334 17.8093 69.7594 18.2514C69.3854 18.6935 69.0903 19.2623 68.8728 19.9542C68.6553 20.6461 68.5466 21.467 68.5466 22.4158C68.5466 24.158 68.9122 25.4808 69.6435 26.383C70.3748 27.2852 71.3762 27.7369 72.6548 27.7369L72.6512 27.7536ZM72.7719 15.9547C73.4255 15.9547 74.1341 16.0025 74.8953 16.0945C75.6716 16.1914 76.4322 16.3874 77.1586 16.6776C77.2984 16.7398 77.3689 16.8485 77.3689 17.0051V27.7596C77.3689 28.8016 77.2374 29.6691 76.9721 30.361C76.7069 31.0529 76.3305 31.6157 75.8405 32.0519C75.3268 32.5014 74.7278 32.8428 74.0792 33.0556C73.3945 33.2886 72.6452 33.4679 71.7932 33.5933C71.6379 33.6089 71.5519 33.5623 71.5363 33.4535L71.4431 32.7772C71.4431 32.6696 71.5053 32.6063 71.6295 32.5908L73.4841 32.1487C74.015 31.9961 74.5133 31.747 74.9539 31.4138C75.3735 31.0857 75.7028 30.6565 75.911 30.1662C76.1381 29.6524 76.2492 28.9916 76.2492 28.1826V28.0189L75.4091 28.2878C75.0985 28.3738 74.7758 28.4431 74.4532 28.4969L73.4614 28.6367C73.1352 28.6761 72.8316 28.6964 72.5508 28.6964C71.6486 28.6964 70.8743 28.5411 70.2302 28.2185C69.5862 27.8958 69.052 27.4716 68.6314 26.9124C68.2108 26.3532 67.9025 25.6911 67.7113 24.9288C67.5113 24.1196 67.4133 23.2887 67.4197 22.4552C67.4197 21.5375 67.5249 20.6819 67.7352 19.8885C67.922 19.1443 68.2506 18.4432 68.7031 17.8236C69.1392 17.2405 69.6949 16.7816 70.3712 16.447C71.0476 16.1124 71.853 15.9451 72.785 15.9451L72.7719 15.9547ZM83.9483 22.5604C83.9483 23.8031 84.1932 24.6754 84.6831 25.1737C85.1731 25.672 85.8542 25.9206 86.7241 25.9206C86.9416 25.9206 87.2332 25.8967 87.5988 25.8489C87.9645 25.8011 88.2716 25.7318 88.5189 25.6386V19.1297C88.1655 19.045 87.8071 18.9828 87.4459 18.9433L86.6058 18.8955C85.8124 18.8955 85.1719 19.1823 84.682 19.7582C84.192 20.3342 83.9471 21.2674 83.9471 22.558L83.9483 22.5604ZM80.4244 22.5102C80.4244 21.6379 80.5319 20.8074 80.7506 20.0127C80.9692 19.2181 81.3026 18.5238 81.7543 17.9252C82.206 17.3265 82.7892 16.8521 83.5037 16.5032C84.2183 16.1543 85.0667 15.9774 86.0466 15.9774L87.2248 16.0252C87.6072 16.0563 88.0374 16.1268 88.5201 16.2355V11.966C88.5201 11.7795 88.556 11.6553 88.6253 11.5931C88.6946 11.531 88.8308 11.4999 89.034 11.4999H91.4143C91.5852 11.4999 91.713 11.5274 91.7991 11.5812C91.8851 11.635 91.9269 11.764 91.9269 11.966V26.8741C91.9272 27.0501 91.9116 27.2256 91.8803 27.3987C91.8648 27.5696 91.7489 27.725 91.5302 27.8767C91.3115 28.0285 91.0355 28.1372 90.7021 28.2388C90.3687 28.3403 89.9947 28.43 89.5824 28.5064L88.3576 28.6821L87.2141 28.7753L86.3274 28.8112C85.2077 28.8112 84.2721 28.6558 83.5157 28.3332C82.7593 28.0105 82.1534 27.5863 81.6958 27.0271C81.2381 26.4679 80.9107 25.8059 80.7159 25.0435C80.5142 24.2189 80.4162 23.3722 80.4244 22.5233V22.5102ZM99.9534 18.7903L99.2878 18.8023C99.001 18.8106 98.6927 18.8453 98.3677 18.9074V28.1229C98.3677 28.2937 98.3402 28.4073 98.2841 28.461C98.2279 28.5148 98.0929 28.5423 97.8754 28.5423H95.4735C95.3027 28.5423 95.1784 28.5148 95.1007 28.461C95.023 28.4073 94.9836 28.2937 94.9836 28.1229V18.114C94.9836 17.5846 95.0768 17.17 95.2632 16.8664C95.4496 16.5629 95.8392 16.349 96.4295 16.2248C96.6493 16.1857 96.8711 16.1585 97.0939 16.1435L98.014 16.0718L98.97 16.0121L99.7981 15.9882C100.885 15.9882 101.829 16.0957 102.622 16.3144C103.414 16.5331 104.072 16.8784 104.593 17.354C105.114 17.8296 105.502 18.4509 105.76 19.2205C106.018 19.99 106.144 20.9269 106.144 22.0322V28.1217C106.144 28.2926 106.117 28.4061 106.061 28.4598C106.005 28.5136 105.87 28.5411 105.652 28.5411H103.226C103.055 28.5411 102.931 28.5136 102.854 28.4598C102.776 28.4061 102.736 28.2926 102.736 28.1217V21.8219C102.743 21.3752 102.7 20.9291 102.609 20.4919C102.523 20.1191 102.376 19.8036 102.166 19.5479C101.957 19.2922 101.669 19.101 101.304 18.9767C100.938 18.8525 100.483 18.7903 99.9391 18.7903H99.9534ZM116.178 22.9894H114.336C114.102 22.9904 113.868 23.0059 113.636 23.036C113.387 23.067 113.158 23.1411 112.947 23.2582C112.733 23.379 112.553 23.5516 112.423 23.7601C112.283 23.9776 112.212 24.2739 112.212 24.6468C112.212 25.1917 112.395 25.5728 112.762 25.7903C113.129 26.0078 113.622 26.1166 114.244 26.1166L114.617 26.1046L115.118 26.0568L115.668 25.9636C115.844 25.9281 116.015 25.8773 116.182 25.8118L116.178 22.9894ZM119.584 27.0259C119.584 27.229 119.557 27.3999 119.5 27.5397C119.444 27.6795 119.309 27.8122 119.092 27.9365C118.721 28.1126 118.335 28.2534 117.937 28.3571C117.525 28.4646 117.106 28.5519 116.678 28.614L115.383 28.7538L114.146 28.8016C113.088 28.8016 112.214 28.7012 111.521 28.4981C110.827 28.2949 110.273 28.0201 109.852 27.67C109.432 27.3199 109.135 26.9076 108.966 26.4332C108.796 25.9588 108.709 25.4498 108.709 24.9037C108.709 24.2966 108.81 23.741 109.012 23.2355C109.214 22.7301 109.518 22.2915 109.92 21.9175C110.323 21.5435 110.835 21.2531 111.45 21.0428C112.065 20.8325 112.792 20.7273 113.632 20.7273H116.199V20.3545C116.199 20.137 116.175 19.9267 116.127 19.7248C116.079 19.5228 115.984 19.3472 115.835 19.199C115.687 19.0508 115.482 18.9313 115.218 18.8369C114.954 18.7425 114.603 18.6971 114.166 18.6971L113.373 18.733L112.486 18.8262L111.623 18.966L110.876 19.1404C110.673 19.1882 110.535 19.1882 110.458 19.1404C110.382 19.0926 110.327 18.9923 110.294 18.8369L109.922 17.2034C109.874 17.0325 109.871 16.9119 109.91 16.8414C109.948 16.7709 110.029 16.7135 110.155 16.6669C110.87 16.4143 111.608 16.2346 112.359 16.1304C113.121 16.022 113.888 15.9673 114.657 15.9667C116.354 15.9667 117.597 16.3287 118.39 17.0517C119.184 17.7746 119.58 18.8441 119.58 20.2601L119.584 27.0259Z" fill="#8A9BB7"/>
</svg>
