<svg width="128" height="41" viewBox="0 0 128 41" fill="none" xmlns="http://www.w3.org/2000/svg">
<path d="M16.6425 34.7135H13.7494C13.1205 34.7135 12.7432 34.462 12.24 33.7072L5.44746 22.0093C5.32174 21.7578 5.19592 21.7578 5.07019 21.7578C4.94447 21.7578 4.81854 21.7578 4.81854 22.0093V33.959C4.81854 34.3362 4.69282 34.7135 4.31545 34.7135H0.919211C0.54184 34.7135 0.416016 34.3362 0.416016 33.959V13.5815C0.416016 12.9527 0.793285 12.5754 1.4222 12.5754H4.44117C5.07009 12.5754 5.32164 12.827 5.69901 13.456L12.7431 25.657C12.8689 25.7829 12.8689 25.9087 12.9947 25.9087C12.9947 25.9087 13.1204 25.783 13.1204 25.657V13.0784C13.1204 12.7012 13.4978 12.5754 13.7493 12.5754H17.2714C17.6488 12.5754 17.9003 12.827 17.9003 13.0784V33.456C17.9004 34.0847 17.2715 34.7135 16.6425 34.7135Z" fill="#8A9BB7"/>
<path d="M33.8751 34.7136H30.6047C30.2273 34.7136 30.1015 34.3363 30.1015 33.959V33.456C28.7181 34.3363 27.7117 34.8396 25.9506 34.8396C23.3091 34.8396 20.9192 33.5814 20.9192 29.6823V29.4306C20.9192 25.9087 23.0577 24.525 28.089 24.525H29.7243V23.3929C29.7243 21.7577 28.8439 21.2544 27.4601 21.2544C25.5735 21.2544 23.4351 21.3801 22.4287 21.3801H22.303C22.0514 21.3801 21.7999 21.3801 21.7999 21.0029V18.6128C21.7999 18.2355 21.9257 18.1098 22.303 17.984C23.4352 17.7324 25.4477 17.355 27.4602 17.355C31.737 17.355 34.3785 19.1159 34.3785 23.3929V33.9589C34.5041 34.2106 34.2526 34.7136 33.8751 34.7136ZM29.85 27.1666H28.0889C25.9505 27.1666 25.3216 27.9212 25.3216 29.4306V29.6823C25.3216 30.9402 25.9505 31.1918 27.2084 31.1918C28.0888 31.1918 28.9694 30.9402 29.7241 30.5628V27.1667H29.85V27.1666Z" fill="#8A9BB7"/>
<path d="M59.5358 34.7135H55.888C55.5106 34.7135 55.2589 34.2105 55.2589 33.959V23.8962C55.2589 22.0093 54.8816 21.3802 53.498 21.3802C52.9947 21.3802 51.9886 21.5062 51.2338 21.8835V33.8332C51.2338 34.2104 51.1081 34.5877 50.7308 34.5877H47.0828C46.7055 34.5877 46.454 34.0847 46.454 33.8332V23.7705C46.454 21.8835 46.0767 21.2544 44.693 21.2544C44.19 21.2544 43.4351 21.5062 42.4289 22.0092V33.8332C42.4289 34.2104 42.3031 34.5877 42.0515 34.5877H38.4038C38.0264 34.5877 37.6489 34.0847 37.6489 33.8332V18.11C37.6489 17.7327 38.0263 17.6069 38.4038 17.6069H41.7999C42.1773 17.6069 42.4289 17.7326 42.4289 18.11V18.7388C43.4351 17.8584 45.0704 17.2297 46.8315 17.2297C48.3408 17.2297 49.4728 17.607 50.3534 18.7388C52.1144 17.7327 53.2465 17.2297 55.1332 17.2297C59.0325 17.2297 60.1647 19.8712 60.1647 23.7707V33.8334C60.1647 34.2105 59.9128 34.7135 59.5358 34.7135Z" fill="#8A9BB7"/>
<path d="M77.1456 27.5439H67.5857C67.5857 29.1791 68.3408 30.8142 70.7304 30.8142C72.6176 30.8142 75.259 30.5627 76.5171 30.5627H76.6425C77.0201 30.5627 77.2716 30.6884 77.2716 30.9402V33.2042C77.2716 33.7072 77.1455 33.8332 76.6425 33.959C74.7559 34.462 73.1207 34.7135 70.4789 34.7135C66.831 34.7135 62.9318 32.8269 62.9318 27.0408V24.9024C62.9318 20.1227 65.8249 17.1036 70.4789 17.1036C75.3849 17.1036 77.9001 20.5 77.9001 24.9024V26.7891C77.9002 27.2924 77.5232 27.5439 77.1456 27.5439ZM73.1207 24.3993C73.1207 22.2608 72.1147 21.1287 70.3535 21.1287C68.7178 21.1287 67.5857 22.2608 67.5857 24.3993H73.1207Z" fill="#8A9BB7"/>
<path d="M84.819 34.7134H81.1711C80.7936 34.7134 80.5421 34.2104 80.5421 33.9588V12.3238C80.5421 11.9465 80.9197 11.8207 81.1711 11.8207H84.819C85.196 11.8207 85.322 12.0722 85.322 12.3238V33.8331C85.322 34.2104 85.196 34.7134 84.819 34.7134Z" fill="#8A9BB7"/>
<path d="M103.813 18.2359L98.7813 35.7203C97.9007 38.9906 96.6426 40.5 92.2402 40.5C91.1086 40.5 89.3469 40.2484 88.5923 39.997C88.2153 39.8713 87.9637 39.7455 87.9637 39.4937V37.1036C87.9637 36.7264 88.2153 36.3491 88.5923 36.3491C89.5989 36.7264 91.3596 36.6007 92.3662 36.6007C93.3722 36.6007 94.0014 36.3491 94.3784 35.0912L94.756 34.3363H94.3784C93.2463 34.3363 92.3662 34.0848 91.6116 31.5693L87.7123 18.2359V18.1102C87.7123 17.8586 87.8377 17.7329 88.3409 17.7329H92.2402C92.4918 17.7329 92.7432 17.9845 92.7432 18.236L95.385 29.4308C95.5111 29.8081 95.5111 30.0598 95.7626 30.0598H96.0141L98.7814 18.3616C98.7814 18.1101 99.0329 17.8585 99.4104 17.8585H103.309C103.561 17.7328 103.938 17.8586 103.813 18.2359C103.813 18.2359 103.813 18.1102 103.813 18.2359Z" fill="#8A9BB7"/>
<path d="M121.171 0.5L119.033 5.02815L118.781 4.7766C118.404 4.39933 118.027 4.14779 117.649 4.02176C117.272 3.77052 116.769 3.77052 116.266 3.77052C115.511 3.77052 114.882 4.02176 114.253 4.27351C113.624 4.65078 113.247 5.15387 112.995 5.78289L108.97 14.5878L115.385 17.4808L117.523 12.9525C117.649 13.0783 117.649 13.0783 117.649 13.2041C118.027 13.5814 118.404 13.8331 118.781 13.9589C119.159 14.2105 119.662 14.2105 120.165 14.2105C120.919 14.2105 121.549 13.9589 122.052 13.5815C122.555 13.2042 123.058 12.7011 123.31 12.0723L127.335 3.26722L121.171 0.5Z" fill="#8A9BB7"/>
</svg>
