<svg width="168" height="29" viewBox="0 0 168 29" fill="none" xmlns="http://www.w3.org/2000/svg">
<path d="M48.4331 13.3723C48.687 13.4613 48.8519 13.5163 49.0167 13.5791C51.1209 14.3668 52.2384 15.9895 52.2698 18.3004C52.3117 21.3336 50.5216 23.621 47.4412 24.4637C46.1981 24.8039 44.9183 24.8301 43.6464 24.8353C40.8618 24.8484 38.0798 24.8301 35.2952 24.8275C34.7063 24.8275 34.7063 24.8275 34.7063 24.2256C34.7063 17.5336 34.7063 10.8442 34.7063 4.15221C34.7063 3.7387 34.7063 3.7387 35.1067 3.73608C38.0588 3.73608 41.0083 3.72038 43.9605 3.74394C45.4365 3.75702 46.9126 3.84077 48.2866 4.4715C50.3017 5.39796 51.4376 6.94206 51.4768 9.19279C51.5109 11.0902 50.5949 12.404 48.878 13.1761C48.755 13.231 48.632 13.2834 48.4331 13.3723ZM40.2127 20.5302C40.3122 20.538 40.3933 20.5485 40.4744 20.5485C41.7621 20.5433 43.0497 20.5511 44.3347 20.5302C45.9024 20.504 46.9047 19.1012 46.4467 17.5911C46.1824 16.717 45.4051 16.0968 44.4342 16.0654C43.0863 16.0235 41.7359 16.0313 40.3855 16.0182C40.3279 16.0182 40.2703 16.0444 40.2127 16.0575C40.2127 17.5545 40.2127 19.0358 40.2127 20.5302ZM40.2075 12.0612C41.1601 12.0612 42.0787 12.0742 42.9947 12.0559C43.4004 12.0481 43.8087 12.0062 44.2065 11.9329C45.2062 11.7497 45.7296 11.1085 45.7375 10.1009C45.7479 8.99389 45.2795 8.27679 44.2379 8.16949C42.9241 8.0334 41.5946 8.06743 40.2703 8.03079C40.2546 8.03079 40.2363 8.04911 40.2049 8.07004C40.2075 9.38122 40.2075 10.7029 40.2075 12.0612Z" fill="#8A9BB7"/>
<path d="M25.2692 14.4872C25.2692 16.348 25.2614 18.2088 25.2718 20.0695C25.2797 21.1792 24.8086 21.9748 23.8429 22.527C20.9405 24.1863 18.0486 25.8639 15.1514 27.5362C14.8243 27.7246 14.4998 27.9105 14.1752 28.1015C13.2514 28.6406 12.338 28.6275 11.4116 28.0937C8.1637 26.2119 4.91323 24.3407 1.66276 22.4668C0.780791 21.9565 0.33588 21.1949 0.33588 20.1769C0.33588 16.3925 0.333263 12.6081 0.33588 8.82377C0.33588 7.80832 0.780791 7.04674 1.668 6.5364C4.93155 4.6573 8.18726 2.77559 11.4456 0.89388C12.3485 0.370455 13.2462 0.367838 14.1517 0.891263C17.3917 2.75989 20.6317 4.63375 23.8769 6.49453C24.8165 7.03365 25.2797 7.82141 25.2745 8.9049C25.2614 10.7657 25.2692 12.6264 25.2692 14.4872ZM7.08021 10.2344C9.84128 6.52593 15.6749 6.37675 18.5301 10.2292C19.9198 9.4257 21.3121 8.62225 22.728 7.80309C22.6495 7.74289 22.6259 7.71934 22.5998 7.70364C19.4932 5.90567 16.3815 4.10771 13.2697 2.30974C12.9609 2.13178 12.6599 2.13963 12.3511 2.3176C9.25766 4.09986 6.1616 5.88212 3.06554 7.66438C3.00796 7.6984 2.96347 7.75075 2.89019 7.81356C4.30082 8.6301 5.68528 9.42832 7.08021 10.2344ZM2.02916 9.25559C2.01607 9.36551 2.00561 9.40738 2.00561 9.44926C2.00561 13.0138 2.00561 16.5783 2.00299 20.1428C2.00299 20.5485 2.1731 20.8285 2.52903 21.0327C5.5649 22.7783 8.59553 24.5291 11.6262 26.2774C11.723 26.3323 11.8224 26.3821 11.9533 26.4527C11.9533 24.8013 11.9533 23.197 11.9533 21.5796C9.63453 21.2237 7.82347 20.0957 6.651 18.0648C5.47591 16.0287 5.38693 13.8905 6.25058 11.6843C4.8478 10.8782 3.45811 10.08 2.02916 9.25559ZM19.3545 11.6764C19.8518 12.9039 20.0193 14.1261 19.8649 15.4006C19.4906 18.4836 17.0358 21.0353 13.9528 21.5064C13.6937 21.5456 13.6335 21.6346 13.6335 21.878C13.644 23.2991 13.6387 24.7202 13.6387 26.1413C13.6387 26.2303 13.6518 26.3166 13.6597 26.437C13.7748 26.3794 13.8586 26.3428 13.9371 26.2983C16.9782 24.5448 20.0167 22.7887 23.0578 21.0405C23.4215 20.8311 23.5917 20.5563 23.5917 20.1297C23.5838 16.628 23.5864 13.1289 23.5864 9.62722C23.5864 9.51992 23.576 9.41262 23.5655 9.25036C22.1365 10.0721 20.7573 10.8677 19.3545 11.6764ZM13.6597 19.8785C15.4341 19.5409 16.7453 18.6275 17.5854 17.0886C18.3783 15.6414 18.4595 14.1261 17.8889 12.5506C17.7947 12.595 17.7371 12.6186 17.6848 12.6474C16.4103 13.3828 15.1383 14.1234 13.8586 14.851C13.6885 14.9478 13.6361 15.063 13.6387 15.2514C13.644 16.683 13.6413 18.1119 13.644 19.5435C13.6413 19.6403 13.6492 19.7319 13.6597 19.8785ZM17.007 11.098C14.9107 8.35007 10.6055 8.42596 8.60861 11.085C8.64787 11.1164 8.68451 11.153 8.72638 11.1792C10.0271 11.9329 11.3278 12.6893 12.6364 13.4299C12.7306 13.4822 12.919 13.4561 13.0237 13.3985C14.0784 12.8044 15.1253 12.1946 16.1747 11.5875C16.4521 11.4252 16.7269 11.2629 17.007 11.098ZM11.9454 19.8471C11.9507 19.7529 11.9585 19.6613 11.9585 19.5697C11.9585 18.1381 11.9533 16.7065 11.9638 15.2776C11.9664 15.0604 11.8931 14.9426 11.7047 14.8379C10.4537 14.1261 9.20793 13.4011 7.95957 12.6814C7.89152 12.6422 7.81562 12.616 7.74234 12.582C6.41546 15.699 8.62432 19.4545 11.9454 19.8471Z" fill="#8A9BB7"/>
<path d="M99.5194 18.023C95.7429 18.023 91.9795 18.023 88.1585 18.023C88.1978 18.3004 88.2239 18.5438 88.271 18.7819C88.3208 19.028 88.3784 19.2713 88.4542 19.5095C89.064 21.352 90.9824 22.1188 92.7097 21.2106C93.3169 20.8913 93.6963 20.3836 93.8717 19.7267C93.9083 19.5854 93.9371 19.4807 94.1256 19.4833C95.8005 19.4912 97.4729 19.4886 99.1478 19.4886C99.1871 19.4886 99.2263 19.5043 99.2996 19.5226C99.2604 19.6822 99.2368 19.8314 99.1871 19.9754C98.2449 22.7888 96.2559 24.4271 93.3928 25.0264C91.5843 25.4059 89.7733 25.3614 88.0015 24.783C85.6853 24.0267 84.0627 22.5192 83.2854 20.2057C82.4427 17.6985 82.4584 15.1834 83.5942 12.7599C84.7981 10.1925 86.884 8.74004 89.6477 8.25064C91.3305 7.95229 93.008 8.02295 94.6176 8.65106C97.1509 9.63771 98.6427 11.5404 99.3362 14.1208C99.6529 15.2959 99.6739 16.492 99.5744 17.6958C99.5718 17.7953 99.5456 17.8947 99.5194 18.023ZM93.8691 14.6783C93.7121 12.8463 92.5003 11.6791 90.9274 11.8047C89.5508 11.9146 88.3129 13.3148 88.3993 14.6783C90.2156 14.6783 92.0319 14.6783 93.8691 14.6783Z" fill="#8A9BB7"/>
<path d="M156.432 18.0255C156.461 19.7501 157.243 21.166 158.533 21.4329C159.591 21.6528 160.598 21.5847 161.454 20.831C161.794 20.5327 161.98 20.1401 162.106 19.7083C162.132 19.6193 162.257 19.4937 162.339 19.4937C164.035 19.4832 165.728 19.4858 167.424 19.4884C167.452 19.4884 167.481 19.5067 167.534 19.5251C167.254 20.6269 166.772 21.6188 166.047 22.4876C165.05 23.6811 163.781 24.4531 162.289 24.8614C160.232 25.4214 158.167 25.4319 156.141 24.7515C153.37 23.8171 151.747 21.836 151.174 19.0016C150.76 16.9629 150.847 14.9372 151.7 13.011C152.904 10.2918 155.037 8.73989 157.944 8.24526C159.598 7.96261 161.245 8.03589 162.825 8.64829C165.422 9.65065 166.929 11.6056 167.599 14.2542C167.895 15.4214 167.905 16.6096 167.798 17.803C167.78 18.0176 167.67 18.0281 167.51 18.0281C166.746 18.0255 165.982 18.0281 165.217 18.0281C162.412 18.0281 159.609 18.0281 156.803 18.0281C156.678 18.0255 156.555 18.0255 156.432 18.0255ZM162.069 14.6781C162.059 13.0869 160.842 11.8019 159.371 11.8019C157.861 11.8019 156.61 13.0948 156.604 14.6781C158.418 14.6781 160.232 14.6781 162.069 14.6781Z" fill="#8A9BB7"/>
<path d="M63.7617 8.55164C65.6147 8.55164 67.4231 8.55164 69.2656 8.55164C69.2656 8.69296 69.2656 8.81335 69.2656 8.93635C69.2682 11.8335 69.2603 14.7281 69.2786 17.6252C69.2839 18.2271 69.3441 18.8369 69.4487 19.431C69.6791 20.7187 70.3255 21.3311 71.566 21.5169C72.728 21.6896 73.7487 21.1662 74.3035 20.1141C74.6751 19.4049 74.8269 18.6459 74.8269 17.8477C74.8269 14.8877 74.8269 11.9303 74.8269 8.97038C74.8269 8.8369 74.8269 8.70343 74.8269 8.55164C76.672 8.55164 78.4778 8.55164 80.302 8.55164C80.302 13.9665 80.302 19.3682 80.302 24.7987C78.5014 24.7987 76.7008 24.7987 74.8531 24.7987C74.8531 24.2989 74.8531 23.8042 74.8531 23.2416C74.7196 23.341 74.6464 23.3907 74.5783 23.4483C73.2436 24.5868 71.7073 25.2358 69.946 25.2594C68.3548 25.2803 66.8395 24.9819 65.5676 23.9403C64.5573 23.1133 63.9606 22.0534 63.8795 20.737C63.8245 19.8524 63.7696 18.9652 63.767 18.078C63.7539 15.0369 63.7617 11.9932 63.7617 8.95206C63.7617 8.82905 63.7617 8.70343 63.7617 8.55164Z" fill="#8A9BB7"/>
<path d="M127.848 25.3039C126.22 25.2542 124.657 24.969 123.21 24.2074C121.294 23.1972 120.056 21.6217 119.465 19.5567C118.905 17.5939 118.908 15.6127 119.509 13.6551C120.253 11.2369 121.82 9.55147 124.202 8.71138C126.811 7.79015 129.449 7.81632 132.004 8.9286C134.532 10.0304 135.94 12.0508 136.442 14.7203C136.759 16.4083 136.701 18.0964 136.165 19.7373C135.199 22.6894 133.113 24.3984 130.111 25.0265C129.371 25.1809 128.604 25.215 127.848 25.3039ZM124.649 16.6858C124.733 17.3688 124.78 18.0571 124.909 18.7297C125.081 19.6274 125.435 20.4544 126.201 21.0223C127.636 22.0875 129.661 21.5144 130.431 19.8342C130.794 19.0438 130.925 18.2011 130.972 17.3427C131.043 16.0498 130.978 14.7726 130.446 13.5635C129.952 12.4355 129.091 11.8101 127.837 11.8022C126.604 11.7943 125.66 12.4879 125.162 13.7572C124.796 14.6967 124.691 15.6782 124.649 16.6858Z" fill="#8A9BB7"/>
<path d="M117.57 14.7306C115.803 14.7306 114.06 14.7306 112.322 14.7306C112.207 14.3014 112.126 13.867 111.972 13.4613C111.388 11.9224 109.574 11.31 108.227 12.1894C107.606 12.5924 107.258 13.2022 107.072 13.8905C106.565 15.7879 106.583 17.6958 107.143 19.5775C107.397 20.4281 107.894 21.1216 108.797 21.4121C110.087 21.8256 111.323 21.2603 111.898 19.9832C112.055 19.6325 112.15 19.2556 112.283 18.863C114.034 18.863 115.816 18.863 117.625 18.863C117.525 19.677 117.298 20.4307 116.952 21.1504C116.17 22.7861 114.905 23.9167 113.228 24.5579C111.032 25.398 108.776 25.5262 106.523 24.8406C103.613 23.956 101.911 21.9225 101.309 18.9808C100.904 16.997 101.006 15.0185 101.767 13.1263C102.895 10.3286 105.036 8.75048 107.97 8.24799C109.938 7.91038 111.867 8.08573 113.704 8.93891C115.999 9.99885 117.546 12.3045 117.57 14.7306Z" fill="#8A9BB7"/>
<path d="M61.9716 21.8432C61.9716 23.0919 61.9716 24.3379 61.9716 25.6271C61.5241 25.6648 61.0818 25.7296 60.6369 25.7323C59.6554 25.7403 58.6635 25.8186 57.6978 25.6864C55.646 25.4032 54.8138 24.4134 54.6724 22.2909C54.641 21.8189 54.6384 21.3442 54.6358 20.8696C54.6332 15.3003 54.6332 9.73371 54.6332 4.16442C54.6332 4.03767 54.6332 3.91091 54.6332 3.76257C56.4625 3.76257 58.2579 3.76257 60.1004 3.76257C60.1004 3.90282 60.1004 4.03767 60.1004 4.17252C60.1004 9.43974 60.1003 14.707 60.103 19.9742C60.103 20.3167 60.1291 20.6619 60.171 21.0044C60.226 21.4629 60.451 21.6976 60.896 21.7596C61.2414 21.8027 61.5869 21.8135 61.9716 21.8432Z" fill="#8A9BB7"/>
<path d="M139.046 8.5462C140.875 8.5462 142.663 8.5462 144.495 8.5462C144.495 9.25805 144.495 9.96206 144.495 10.6635C144.518 10.6818 144.542 10.7027 144.565 10.721C145.978 8.89427 147.667 7.69301 150.129 8.20597C150.129 9.67679 150.129 11.145 150.129 12.6446C150.038 12.6446 149.959 12.6394 149.878 12.6446C149.098 12.6996 148.302 12.676 147.546 12.833C146.06 13.1392 145.204 14.1652 144.882 15.5967C144.686 16.4656 144.573 17.3685 144.55 18.2583C144.495 20.3259 144.51 22.396 144.513 24.4635C144.513 24.741 144.45 24.8378 144.152 24.8352C142.563 24.8195 140.972 24.8221 139.381 24.8326C139.119 24.8352 139.02 24.7828 139.02 24.4923C139.027 19.2869 139.025 14.084 139.027 8.87857C139.027 8.77912 139.038 8.67705 139.046 8.5462Z" fill="#8A9BB7"/>
</svg>
