<svg width="145" height="31" viewBox="0 0 145 31" fill="none" xmlns="http://www.w3.org/2000/svg">
<path d="M11.8397 15.5C11.8397 13.5279 13.4398 11.9293 15.4119 11.9293C17.384 11.9293 18.9826 13.5294 18.9826 15.5C18.9826 17.4721 17.384 19.0722 15.4119 19.0722C13.4383 19.0722 11.8397 17.4721 11.8397 15.5ZM15.4104 0.5C8.40791 0.5 2.53192 5.29731 0.87953 11.7829C0.867578 11.8307 0.860107 11.8785 0.860107 11.9293C0.860107 12.3237 1.17983 12.6434 1.57425 12.6434H7.62056C7.90891 12.6434 8.15542 12.4716 8.26897 12.2266H8.27046C9.512 9.52241 12.2416 7.64293 15.4119 7.64293C19.7505 7.64293 23.269 11.1614 23.269 15.5C23.269 19.8386 19.7505 23.3586 15.4119 23.3586C12.2416 23.3586 9.512 21.4791 8.27046 18.7734L8.26897 18.7749C8.15542 18.5299 7.90891 18.3581 7.62056 18.3581H1.57425C1.17983 18.3581 0.860107 18.6763 0.860107 19.0722C0.860107 19.1215 0.867578 19.1678 0.878036 19.2141C2.53192 25.7012 8.40791 30.5 15.4104 30.5C23.6933 30.5 30.4104 23.7829 30.4104 15.5C30.4104 7.21564 23.6948 0.5 15.4104 0.5ZM54.636 19.0169H52.5952C52.4517 19.0169 52.3277 19.0857 52.247 19.1902C51.0623 20.9412 49.0588 22.0946 46.7849 22.0946C43.1425 22.0946 40.1903 19.1424 40.1903 15.5015C40.1903 11.8606 43.1425 8.90837 46.7849 8.90837C49.0588 8.90837 51.0638 10.0618 52.2485 11.8127C52.3292 11.9173 52.4547 11.9861 52.5966 11.9861H54.6375C54.881 11.9861 55.0782 11.7888 55.0782 11.5468C55.0782 11.4751 55.0588 11.4094 55.0304 11.3496C53.5095 8.33765 50.39 6.27141 46.7864 6.27141C41.6888 6.27141 37.5548 10.4039 37.5548 15.503C37.5548 20.6006 41.6888 24.7346 46.7864 24.7346C50.39 24.7346 53.5095 22.6683 55.0304 19.6564C55.0603 19.5966 55.0782 19.5309 55.0782 19.4592C55.0767 19.2127 54.8795 19.0169 54.636 19.0169ZM60.7899 3.19223C60.7899 4.16335 60.004 4.9507 59.0314 4.9507C58.0603 4.9507 57.2729 4.16335 57.2729 3.19223C57.2729 2.22112 58.0603 1.43376 59.0314 1.43376C60.004 1.43376 60.7899 2.22112 60.7899 3.19223ZM60.3506 23.8516V6.70916H57.7122V23.8516C57.7122 24.0936 57.9094 24.2908 58.1514 24.2908H59.9099C60.1549 24.2908 60.3506 24.0951 60.3506 23.8516ZM71.7874 6.28038C69.128 6.40588 67.0035 7.67729 65.6275 9.61803V7.14691C65.6275 6.90488 65.4303 6.70767 65.1883 6.70767H63.4298C63.1863 6.70767 62.9906 6.90488 62.9906 7.14691V23.8516C62.9906 24.0936 63.1878 24.2908 63.4298 24.2908H65.1883C65.4303 24.2908 65.6275 24.0936 65.6275 23.8516V15.5C65.6275 12.007 68.3451 9.14741 71.7814 8.92181C72.0249 8.92181 72.2221 8.7246 72.2221 8.48108V6.71962C72.2206 6.47908 72.0264 6.28486 71.7874 6.28038ZM89.3018 19.0169H87.261C87.119 19.0169 86.9936 19.0857 86.9144 19.1902C85.7296 20.9412 83.7246 22.0946 81.4522 22.0946C77.8098 22.0946 74.8576 19.1424 74.8576 15.5015C74.8576 11.8606 77.8083 8.90837 81.4522 8.90837C83.7261 8.90837 85.7296 10.0618 86.9144 11.8127C86.995 11.9173 87.1205 11.9861 87.261 11.9861H89.3018C89.5453 11.9861 89.7426 11.7888 89.7426 11.5468C89.7426 11.4751 89.7246 11.4094 89.6933 11.3496C88.1738 8.33765 85.0528 6.27141 81.4507 6.27141C76.3516 6.27141 72.2192 10.4039 72.2192 15.503C72.2192 20.6006 76.3516 24.7346 81.4507 24.7346C85.0528 24.7346 88.1738 22.6683 89.6933 19.6564C89.7231 19.5966 89.7426 19.5309 89.7426 19.4592C89.7426 19.2127 89.5453 19.0169 89.3018 19.0169ZM94.5772 0.994522H92.8187C92.5752 0.994522 92.3795 1.19173 92.3795 1.43376V23.8516C92.3795 24.0936 92.5752 24.2908 92.8187 24.2908H94.5772C94.8193 24.2908 95.0179 24.0936 95.0179 23.8516V1.43376C95.0179 1.19173 94.8207 0.994522 94.5772 0.994522ZM106.886 6.26992C101.787 6.26992 97.6549 10.4024 97.6549 15.5015C97.6549 20.5991 101.787 24.7331 106.886 24.7331C110.49 24.7331 113.61 22.6668 115.129 19.6549C115.159 19.5951 115.177 19.5294 115.177 19.4577C115.177 19.2141 114.98 19.0184 114.738 19.0184H112.697C112.552 19.0184 112.422 19.0901 112.343 19.1992C111.155 20.9457 109.154 22.0961 106.885 22.0961C103.541 22.0961 100.78 19.6071 100.35 16.3815H115.664C115.9 16.3815 116.09 16.1962 116.103 15.9646C116.111 15.8123 116.115 15.6584 116.115 15.503C116.117 10.4024 111.984 6.26992 106.886 6.26992ZM100.531 13.7415C101.302 10.9552 103.855 8.90687 106.886 8.90687C109.918 8.90687 112.47 10.9552 113.241 13.7415H100.531ZM141.649 0.555279C140.193 0.555279 139.012 1.73705 139.012 3.19223C139.012 4.6489 140.194 5.82918 141.649 5.82918C143.106 5.82918 144.286 4.6489 144.286 3.19223C144.286 1.73556 143.106 0.555279 141.649 0.555279ZM143.847 6.70916V23.8516C143.847 24.0936 143.65 24.2908 143.408 24.2908H139.891C139.649 24.2908 139.452 24.0936 139.452 23.8516V6.70916H143.847ZM127.985 24.7316C132.294 24.7316 135.909 21.7794 136.928 17.7874C136.934 17.759 136.939 17.7291 136.939 17.6977C136.939 17.4557 136.742 17.2585 136.5 17.2585H132.778C132.602 17.2585 132.449 17.363 132.38 17.5154H132.379C131.614 19.1798 129.936 20.3362 127.985 20.3362C125.315 20.3362 123.149 18.1713 123.149 15.5015C123.149 12.8317 125.315 10.6668 127.985 10.6668C129.936 10.6668 131.614 11.8232 132.379 13.4875L132.38 13.4861C132.449 13.637 132.602 13.743 132.778 13.743H136.5C136.742 13.743 136.939 13.5458 136.939 13.3038C136.939 13.2739 136.934 13.2455 136.928 13.2156C135.911 9.22361 132.294 6.26992 127.985 6.26992C122.889 6.26992 118.754 10.4039 118.754 15.5015C118.754 20.5991 122.889 24.7316 127.985 24.7316Z" fill="#8A9BB7"/>
</svg>
