<svg width="40" height="40" viewBox="0 0 40 40" fill="none" xmlns="http://www.w3.org/2000/svg">
<path d="M26.0934 24.3354C24.8538 24.0321 23.9242 23.1223 23.9242 21.9092V16.4504C23.9242 14.934 22.6846 13.7209 21.1351 13.7209C19.5857 13.7209 18.3461 14.934 18.3461 16.4504V29.7942L15.2472 27.9746C14.3175 27.6713 13.0779 27.6713 12.4581 28.5812C11.5284 29.491 11.5284 30.704 12.4581 31.6139L18.656 38.2858L31.0517 25.2452L26.0934 24.3354Z" fill="#31C6E3"/>
<path d="M22.6848 22.819C21.4452 22.5158 20.5155 21.6059 20.5155 20.3929V14.934C20.5155 13.4177 19.276 12.2046 17.7265 12.2046C16.177 12.2046 15.2474 13.4177 15.2474 14.934V28.2779L11.5287 26.4583C10.599 25.8517 9.66929 26.155 8.73962 26.7615C7.80994 27.6713 7.80994 28.8844 8.73962 29.7942L16.4869 37.9825H31.3618L32.2915 26.7615C32.2915 25.2452 31.3618 23.7288 29.5024 23.4256L22.6848 22.819Z" stroke="#220E6D" stroke-width="2" stroke-linecap="round" stroke-linejoin="round"/>
<path d="M17.7266 6.13924V2.5" stroke="#220E6D" stroke-width="2" stroke-linecap="round" stroke-linejoin="round"/>
<path d="M9.97914 10.6882L7.5 9.17188" stroke="#220E6D" stroke-width="2" stroke-linecap="round" stroke-linejoin="round"/>
<path d="M25.474 10.6882L28.263 9.17188" stroke="#220E6D" stroke-width="2" stroke-linecap="round" stroke-linejoin="round"/>
<path d="M9.97899 17.6635L8.11963 18.27" stroke="#220E6D" stroke-width="2" stroke-linecap="round" stroke-linejoin="round"/>
</svg>
